<?xml version="1.0" standalone="no"?>
<!DOCTYPE svg PUBLIC "-//W3C//DTD SVG 20010904//EN"
 "http://www.w3.org/TR/2001/REC-SVG-20010904/DTD/svg10.dtd">
<svg version="1.0" xmlns="http://www.w3.org/2000/svg"
 width="300.000000pt" height="268.000000pt" viewBox="0 0 300.000000 268.000000"
 preserveAspectRatio="xMidYMid meet">
<metadata>
Created by potrace 1.10, written by Peter Selinger 2001-2011
</metadata>
<g transform="translate(0.000000,268.000000) scale(0.100000,-0.100000)"
fill="#ffc048" stroke="none">
<path d="M1287 2663 c-12 -11 -8 -23 8 -23 8 0 15 7 15 15 0 16 -12 20 -23 8z"/>
<path d="M1330 2655 c0 -8 7 -15 15 -15 8 0 15 7 15 15 0 8 -7 15 -15 15 -8 0
-15 -7 -15 -15z"/>
<path d="M1380 2655 c0 -8 7 -15 15 -15 8 0 15 7 15 15 0 8 -7 15 -15 15 -8 0
-15 -7 -15 -15z"/>
<path d="M1430 2655 c0 -8 7 -15 15 -15 8 0 15 7 15 15 0 8 -7 15 -15 15 -8 0
-15 -7 -15 -15z"/>
<path d="M1480 2655 c0 -9 5 -15 11 -13 6 2 11 8 11 13 0 5 -5 11 -11 13 -6 2
-11 -4 -11 -13z"/>
<path d="M1190 2645 c0 -8 7 -15 15 -15 9 0 12 6 9 15 -4 8 -10 15 -15 15 -5
0 -9 -7 -9 -15z"/>
<path d="M1236 2645 c4 -8 10 -15 15 -15 5 0 9 7 9 15 0 8 -7 15 -15 15 -9 0
-12 -6 -9 -15z"/>
<path d="M1530 2651 c0 -6 5 -13 10 -16 6 -3 10 1 10 9 0 9 -4 16 -10 16 -5 0
-10 -4 -10 -9z"/>
<path d="M1577 2653 c-12 -11 -8 -23 8 -23 8 0 15 7 15 15 0 16 -12 20 -23 8z"/>
<path d="M1140 2636 c0 -9 7 -16 16 -16 9 0 14 5 12 12 -6 18 -28 21 -28 4z"/>
<path d="M1620 2635 c0 -8 7 -15 15 -15 8 0 15 7 15 15 0 8 -7 15 -15 15 -8 0
-15 -7 -15 -15z"/>
<path d="M1090 2625 c0 -8 7 -15 15 -15 8 0 15 7 15 15 0 8 -7 15 -15 15 -8 0
-15 -7 -15 -15z"/>
<path d="M1672 2629 c2 -6 8 -10 13 -10 5 0 11 4 13 10 2 6 -4 11 -13 11 -9 0
-15 -5 -13 -11z"/>
<path d="M1042 2618 c6 -18 28 -21 28 -4 0 9 -7 16 -16 16 -9 0 -14 -5 -12
-12z"/>
<path d="M1720 2614 c0 -17 22 -14 28 4 2 7 -3 12 -12 12 -9 0 -16 -7 -16 -16z"/>
<path d="M1000 2605 c0 -8 7 -15 15 -15 9 0 12 6 9 15 -4 8 -10 15 -15 15 -5
0 -9 -7 -9 -15z"/>
<path d="M1767 2614 c-8 -8 1 -24 14 -24 5 0 9 7 9 15 0 15 -12 20 -23 9z"/>
<path d="M956 2603 c-11 -11 -6 -23 9 -23 8 0 15 4 15 9 0 13 -16 22 -24 14z"/>
<path d="M1817 2603 c-12 -11 -8 -23 8 -23 8 0 15 7 15 15 0 16 -12 20 -23 8z"/>
<path d="M1216 2589 c-299 -41 -574 -177 -786 -389 -240 -240 -355 -518 -354
-855 0 -127 4 -166 26 -255 104 -416 397 -738 815 -896 182 -69 448 -100 653
-76 299 36 587 172 792 375 112 110 177 200 243 332 102 207 130 338 122 575
-6 162 -20 239 -70 370 -151 400 -518 705 -962 800 -115 24 -368 35 -479 19z
m419 -25 c186 -29 381 -107 545 -217 101 -67 275 -243 339 -342 266 -408 265
-902 -2 -1303 -142 -213 -357 -385 -601 -482 -171 -67 -423 -108 -591 -95
-354 27 -647 156 -880 390 -236 235 -355 517 -355 840 0 319 125 612 360 846
302 300 737 433 1185 363z"/>
<path d="M1002 2259 c-58 -10 -99 -28 -150 -66 -68 -51 -84 -142 -34 -193 49
-49 184 -60 277 -24 25 10 -23 -55 -104 -139 -70 -74 -136 -108 -217 -115 -77
-6 -110 2 -125 29 -13 25 -5 36 14 21 19 -16 50 7 41 31 -14 37 -84 9 -84 -34
0 -24 32 -57 65 -65 56 -14 158 1 226 33 84 39 138 87 206 186 32 45 62 77 72
77 24 0 167 71 217 108 48 35 77 88 63 114 -14 26 -66 23 -128 -8 -52 -26
-169 -131 -207 -187 -47 -68 -277 -66 -314 2 -26 49 2 111 72 159 60 41 111
55 201 56 80 1 99 9 46 20 -38 7 -68 6 -137 -5z m448 -58 c0 -30 -92 -105
-184 -150 -46 -22 -87 -41 -91 -41 -11 0 32 55 91 115 80 81 184 124 184 76z"/>
<path d="M1511 2194 c0 -11 3 -14 6 -6 3 7 2 16 -1 19 -3 4 -6 -2 -5 -13z"/>
<path d="M1856 1943 c-4 -9 -2 -21 3 -26 15 -15 41 0 41 23 0 25 -35 28 -44 3z"/>
<path d="M1334 1886 c-3 -8 -3 -19 0 -24 6 -10 -66 -74 -129 -114 -49 -31 -95
-44 -95 -26 1 25 26 46 68 57 54 15 98 52 89 75 -9 23 -45 15 -106 -22 -58
-36 -85 -73 -77 -105 14 -57 84 -37 201 57 83 67 110 74 49 12 -48 -47 -56
-79 -24 -96 21 -11 65 5 103 38 15 14 17 13 17 -5 0 -32 23 -45 56 -33 l29 11
-23 -24 c-13 -14 -39 -28 -57 -31 -42 -8 -150 -78 -166 -107 -10 -19 -9 -25 5
-35 34 -24 95 7 176 91 27 28 71 58 110 76 36 17 83 44 104 61 31 25 38 28 32
12 -23 -59 12 -73 76 -29 l37 25 3 -23 c5 -37 55 -34 102 5 24 19 49 31 61 30
12 -2 28 4 35 13 12 15 10 15 -16 9 -28 -7 -28 -6 -12 12 33 38 27 74 -12 74
-42 0 -85 -24 -150 -83 -109 -100 -146 -89 -45 13 62 62 67 70 45 70 -15 0
-54 -23 -100 -61 -76 -60 -189 -133 -197 -126 -2 2 40 45 93 96 85 79 94 91
71 91 -14 0 -28 -6 -31 -12 -5 -10 -7 -10 -12 0 -16 34 -108 0 -209 -77 -36
-28 -75 -56 -86 -62 -41 -22 -31 3 23 59 50 50 55 59 44 75 -8 10 -20 15 -29
11 -10 -4 -15 0 -14 12 2 23 -31 31 -39 10z m-95 -52 c-15 -18 -69 -48 -75
-41 -5 5 67 55 80 56 5 1 3 -6 -5 -15z m391 7 c0 -15 -102 -103 -135 -117 -69
-29 -47 17 38 82 55 41 97 56 97 35z m350 -6 c0 -22 -84 -103 -115 -111 -47
-12 -41 6 22 67 60 58 93 74 93 44z m-591 -250 c-40 -36 -70 -55 -86 -55 -23
0 -24 2 -12 17 19 23 129 93 146 93 8 0 -14 -25 -48 -55z"/>
<path d="M1534 1285 c-144 -31 -244 -119 -244 -213 0 -40 36 -91 75 -108 39
-16 144 -19 193 -5 28 9 31 8 23 -7 -22 -39 -116 -134 -157 -158 -44 -26 -47
-26 -107 -13 -34 7 -90 14 -125 14 -51 0 -66 -4 -78 -19 -10 -14 -11 -23 -3
-32 16 -19 107 -27 173 -15 42 8 76 7 127 -1 91 -16 183 -1 250 41 l48 29 -12
-25 c-9 -21 -8 -27 8 -39 16 -12 23 -11 52 6 33 20 33 20 54 -1 24 -24 51 -20
109 16 l39 24 3 -27 c4 -37 34 -39 78 -7 l35 26 5 -23 c11 -43 39 -31 149 59
2 1 1 6 -2 9 -4 4 -31 -12 -60 -35 -30 -22 -57 -41 -60 -41 -19 0 0 29 60 91
63 65 65 69 39 69 -15 0 -29 -7 -32 -15 -6 -14 -8 -13 -19 2 -11 15 -17 15
-55 4 -76 -23 -126 -61 -121 -93 0 -4 -8 -6 -19 -5 -17 1 -18 3 -5 17 8 9 15
34 15 56 0 22 5 45 12 52 6 6 9 14 6 17 -3 3 -52 -33 -109 -80 -57 -48 -116
-93 -131 -101 -49 -25 -33 6 39 78 60 61 65 68 43 68 -15 0 -53 -22 -95 -56
-105 -84 -115 -88 -240 -91 l-110 -4 62 31 c60 30 142 108 180 170 11 19 32
31 77 44 122 34 279 140 305 205 15 34 3 66 -28 76 -63 20 -223 -80 -317 -197
-34 -41 -63 -81 -65 -87 -3 -8 -39 -14 -99 -17 -79 -5 -101 -2 -130 13 -76 39
-72 115 10 195 58 56 142 86 268 95 45 3 82 10 82 14 0 13 -127 9 -196 -6z
m455 -39 c35 -42 -93 -157 -239 -216 -105 -42 -102 -41 -94 -28 22 38 129 160
163 187 42 34 116 70 142 71 9 0 22 -6 28 -14z m-45 -378 c-13 -44 -33 -76
-64 -102 -35 -29 -60 -36 -40 -11 9 11 10 19 3 26 -7 7 6 26 41 59 56 55 71
61 60 28z m196 -1 c0 -23 -124 -127 -151 -127 -31 0 28 72 90 112 50 31 61 34
61 15z m-845 -106 c27 -7 24 -8 -27 -15 -60 -9 -138 0 -138 15 0 10 120 10
165 0z"/>
<path d="M1864 975 c-4 -9 -2 -21 4 -27 15 -15 44 -1 40 19 -4 23 -36 29 -44
8z"/>
<path d="M811 945 c-17 -20 -31 -42 -31 -49 0 -8 -20 -19 -46 -25 -63 -16
-106 -60 -102 -103 5 -57 83 -64 134 -13 32 32 36 31 28 -2 -12 -50 -42 -99
-80 -133 -70 -61 -142 -76 -185 -40 l-24 20 29 26 c24 21 37 25 68 21 38 -5
52 5 22 17 -37 14 -76 6 -105 -23 -36 -36 -36 -54 -3 -80 57 -45 197 -13 256
57 35 41 52 95 45 143 -5 36 -2 42 40 79 52 45 68 49 76 19 7 -28 32 -19 32
12 0 38 -49 38 -102 -1 -24 -18 -43 -36 -43 -41 0 -5 -4 -9 -10 -9 -5 0 -10
11 -10 24 0 19 7 26 30 31 16 4 43 19 60 35 26 25 29 32 20 50 -18 33 -62 26
-99 -15z m77 -2 c-4 -23 -88 -71 -88 -50 0 8 12 26 26 41 31 30 67 35 62 9z
m-104 -109 c8 -30 -11 -57 -56 -80 -32 -17 -68 -18 -68 -3 0 24 35 68 69 88
46 26 48 26 55 -5z"/>
<path d="M902 2578 c6 -18 28 -21 28 -4 0 9 -7 16 -16 16 -9 0 -14 -5 -12 -12z"/>
<path d="M1862 2579 c2 -6 8 -10 13 -10 5 0 11 4 13 10 2 6 -4 11 -13 11 -9 0
-15 -5 -13 -11z"/>
<path d="M1906 2573 c-11 -11 -6 -23 9 -23 8 0 15 4 15 9 0 13 -16 22 -24 14z"/>
<path d="M860 2555 c0 -9 5 -15 11 -13 6 2 11 8 11 13 0 5 -5 11 -11 13 -6 2
-11 -4 -11 -13z"/>
<path d="M815 2550 c-8 -13 4 -32 16 -25 12 8 12 35 0 35 -6 0 -13 -4 -16 -10z"/>
<path d="M1950 2545 c0 -9 5 -15 11 -13 6 2 11 8 11 13 0 5 -5 11 -11 13 -6 2
-11 -4 -11 -13z"/>
<path d="M776 2533 c-11 -11 -6 -23 9 -23 8 0 15 4 15 9 0 13 -16 22 -24 14z"/>
<path d="M1997 2533 c-12 -11 -8 -23 8 -23 8 0 15 7 15 15 0 16 -12 20 -23 8z"/>
<path d="M2040 2505 c0 -9 5 -15 11 -13 6 2 11 8 11 13 0 5 -5 11 -11 13 -6 2
-11 -4 -11 -13z"/>
<path d="M726 2495 c4 -8 10 -12 15 -9 14 8 10 24 -6 24 -9 0 -12 -6 -9 -15z"/>
<path d="M2085 2490 c-4 -6 -3 -16 3 -22 6 -6 12 -6 17 2 4 6 3 16 -3 22 -6 6
-12 6 -17 -2z"/>
<path d="M682 2479 c2 -6 8 -10 13 -10 5 0 11 4 13 10 2 6 -4 11 -13 11 -9 0
-15 -5 -13 -11z"/>
<path d="M646 2463 c-11 -11 -6 -23 9 -23 8 0 15 4 15 9 0 13 -16 22 -24 14z"/>
<path d="M2125 2461 c-6 -11 9 -23 19 -14 9 9 7 23 -3 23 -6 0 -12 -4 -16 -9z"/>
<path d="M2166 2443 c-11 -11 -6 -23 9 -23 8 0 15 4 15 9 0 13 -16 22 -24 14z"/>
<path d="M600 2425 c0 -9 5 -15 11 -13 6 2 11 8 11 13 0 5 -5 11 -11 13 -6 2
-11 -4 -11 -13z"/>
<path d="M566 2413 c-11 -11 -6 -23 9 -23 8 0 15 4 15 9 0 13 -16 22 -24 14z"/>
<path d="M2205 2411 c-7 -12 12 -24 25 -16 11 7 4 25 -10 25 -5 0 -11 -4 -15
-9z"/>
<path d="M526 2383 c-11 -11 -6 -23 9 -23 8 0 15 4 15 9 0 13 -16 22 -24 14z"/>
<path d="M2247 2384 c-8 -8 1 -24 14 -24 5 0 9 7 9 15 0 15 -12 20 -23 9z"/>
<path d="M485 2350 c-4 -6 -3 -16 3 -22 6 -6 12 -6 17 2 4 6 3 16 -3 22 -6 6
-12 6 -17 -2z"/>
<path d="M2282 2349 c2 -6 8 -10 13 -10 5 0 11 4 13 10 2 6 -4 11 -13 11 -9 0
-15 -5 -13 -11z"/>
<path d="M445 2320 c-4 -6 -3 -16 3 -22 6 -6 12 -6 17 2 4 6 3 16 -3 22 -6 6
-12 6 -17 -2z"/>
<path d="M2322 2319 c2 -6 8 -10 13 -10 5 0 11 4 13 10 2 6 -4 11 -13 11 -9 0
-15 -5 -13 -11z"/>
<path d="M2355 2291 c-7 -12 12 -24 25 -16 11 7 4 25 -10 25 -5 0 -11 -4 -15
-9z"/>
<path d="M405 2281 c-7 -12 12 -24 25 -16 11 7 4 25 -10 25 -5 0 -11 -4 -15
-9z"/>
<path d="M2395 2260 c-4 -6 -3 -16 3 -22 6 -6 12 -6 17 2 4 6 3 16 -3 22 -6 6
-12 6 -17 -2z"/>
<path d="M377 2254 c-8 -8 1 -24 14 -24 5 0 9 7 9 15 0 15 -12 20 -23 9z"/>
<path d="M345 2220 c-4 -6 -3 -16 3 -22 6 -6 12 -6 17 2 4 6 3 16 -3 22 -6 6
-12 6 -17 -2z"/>
<path d="M2425 2221 c-7 -12 12 -24 25 -16 11 7 4 25 -10 25 -5 0 -11 -4 -15
-9z"/>
<path d="M2465 2190 c-4 -6 -3 -16 3 -22 6 -6 12 -6 17 2 4 6 3 16 -3 22 -6 6
-12 6 -17 -2z"/>
<path d="M305 2181 c-7 -12 12 -24 25 -16 11 7 4 25 -10 25 -5 0 -11 -4 -15
-9z"/>
<path d="M2496 2153 c-11 -11 -6 -23 9 -23 8 0 15 4 15 9 0 13 -16 22 -24 14z"/>
<path d="M277 2144 c-8 -8 1 -24 14 -24 5 0 9 7 9 15 0 15 -12 20 -23 9z"/>
<path d="M2520 2105 c0 -9 5 -15 11 -13 6 2 11 8 11 13 0 5 -5 11 -11 13 -6 2
-11 -4 -11 -13z"/>
<path d="M247 2104 c-8 -8 1 -24 14 -24 5 0 9 7 9 15 0 15 -12 20 -23 9z"/>
<path d="M2550 2065 c0 -9 5 -15 11 -13 6 2 11 8 11 13 0 5 -5 11 -11 13 -6 2
-11 -4 -11 -13z"/>
<path d="M216 2061 c-3 -5 1 -11 9 -15 15 -6 29 7 18 18 -9 9 -21 8 -27 -3z"/>
<path d="M2575 2031 c-7 -12 12 -24 25 -16 11 7 4 25 -10 25 -5 0 -11 -4 -15
-9z"/>
<path d="M192 2019 c2 -6 8 -10 13 -10 5 0 11 4 13 10 2 6 -4 11 -13 11 -9 0
-15 -5 -13 -11z"/>
<path d="M2606 1993 c-11 -11 -6 -23 9 -23 8 0 15 4 15 9 0 13 -16 22 -24 14z"/>
<path d="M167 1984 c-8 -8 1 -24 14 -24 5 0 9 7 9 15 0 15 -12 20 -23 9z"/>
<path d="M2627 1954 c-9 -9 4 -35 14 -28 5 3 9 12 9 20 0 14 -12 19 -23 8z"/>
<path d="M146 1943 c-11 -11 -6 -23 9 -23 8 0 15 4 15 9 0 13 -16 22 -24 14z"/>
<path d="M2653 1912 c-8 -5 -9 -13 -3 -22 6 -10 13 -11 19 -5 13 13 -1 36 -16
27z"/>
<path d="M122 1896 c1 -10 8 -17 13 -17 15 1 12 24 -3 29 -9 3 -13 -2 -10 -12z"/>
<path d="M2670 1855 c0 -9 5 -15 11 -13 6 2 11 8 11 13 0 5 -5 11 -11 13 -6 2
-11 -4 -11 -13z"/>
<path d="M100 1844 c0 -9 5 -14 12 -12 18 6 21 28 4 28 -9 0 -16 -7 -16 -16z"/>
<path d="M2693 1822 c-7 -4 -9 -13 -5 -19 4 -7 13 -9 19 -5 7 4 9 13 5 19 -4
7 -13 9 -19 5z"/>
<path d="M80 1806 c0 -9 7 -16 16 -16 17 0 14 22 -4 28 -7 2 -12 -3 -12 -12z"/>
<path d="M2707 1774 c-8 -8 1 -24 14 -24 5 0 9 7 9 15 0 15 -12 20 -23 9z"/>
<path d="M67 1764 c-8 -8 1 -24 14 -24 5 0 9 7 9 15 0 15 -12 20 -23 9z"/>
<path d="M2720 1715 c0 -9 5 -15 11 -13 6 2 11 8 11 13 0 5 -5 11 -11 13 -6 2
-11 -4 -11 -13z"/>
<path d="M52 1709 c2 -6 8 -10 13 -10 5 0 11 4 13 10 2 6 -4 11 -13 11 -9 0
-15 -5 -13 -11z"/>
<path d="M2737 1683 c-12 -11 -8 -23 8 -23 8 0 15 7 15 15 0 16 -12 20 -23 8z"/>
<path d="M40 1665 c0 -9 5 -15 11 -13 14 5 14 21 0 26 -6 2 -11 -4 -11 -13z"/>
<path d="M2740 1625 c0 -8 7 -15 15 -15 8 0 15 7 15 15 0 8 -7 15 -15 15 -8 0
-15 -7 -15 -15z"/>
<path d="M27 1624 c-8 -8 1 -24 14 -24 5 0 9 7 9 15 0 15 -12 20 -23 9z"/>
<path d="M2750 1575 c0 -8 7 -15 15 -15 8 0 15 7 15 15 0 8 -7 15 -15 15 -8 0
-15 -7 -15 -15z"/>
<path d="M16 1571 c-3 -5 1 -11 9 -15 9 -3 15 0 15 9 0 16 -16 20 -24 6z"/>
<path d="M2760 1524 c0 -9 5 -14 12 -12 18 6 21 28 4 28 -9 0 -16 -7 -16 -16z"/>
<path d="M10 1520 c0 -5 7 -10 15 -10 8 0 15 5 15 10 0 6 -7 10 -15 10 -8 0
-15 -4 -15 -10z"/>
<path d="M2771 1491 c-10 -6 -10 -10 -1 -16 13 -8 24 -1 19 14 -3 6 -10 7 -18
2z"/>
<path d="M0 1470 c0 -5 7 -10 15 -10 8 0 15 5 15 10 0 6 -7 10 -15 10 -8 0
-15 -4 -15 -10z"/>
<path d="M2770 1436 c0 -9 7 -16 16 -16 17 0 14 22 -4 28 -7 2 -12 -3 -12 -12z"/>
<path d="M6 1433 c-11 -11 -6 -23 9 -23 8 0 15 4 15 9 0 13 -16 22 -24 14z"/>
<path d="M2770 1385 c0 -8 7 -15 15 -15 8 0 15 7 15 15 0 8 -7 15 -15 15 -8 0
-15 -7 -15 -15z"/>
<path d="M0 1365 c0 -17 5 -25 12 -22 17 5 17 39 1 45 -8 2 -13 -6 -13 -23z"/>
<path d="M2770 1335 c0 -8 7 -15 15 -15 8 0 15 7 15 15 0 8 -7 15 -15 15 -8 0
-15 -7 -15 -15z"/>
<path d="M2 1309 c2 -6 8 -10 13 -10 5 0 11 4 13 10 2 6 -4 11 -13 11 -9 0
-15 -5 -13 -11z"/>
<path d="M2770 1285 c0 -8 7 -15 15 -15 8 0 15 7 15 15 0 8 -7 15 -15 15 -8 0
-15 -7 -15 -15z"/>
<path d="M5 1260 c3 -5 10 -10 16 -10 5 0 9 5 9 10 0 6 -7 10 -16 10 -8 0 -12
-4 -9 -10z"/>
<path d="M2767 1244 c-8 -8 1 -24 14 -24 5 0 9 7 9 15 0 15 -12 20 -23 9z"/>
<path d="M16 1223 c-11 -11 -6 -23 9 -23 8 0 15 4 15 9 0 13 -16 22 -24 14z"/>
<path d="M2760 1190 c0 -5 7 -10 15 -10 8 0 15 5 15 10 0 6 -7 10 -15 10 -8 0
-15 -4 -15 -10z"/>
<path d="M17 1174 c-8 -8 1 -24 14 -24 5 0 9 7 9 15 0 15 -12 20 -23 9z"/>
<path d="M2750 1146 c0 -9 7 -16 16 -16 17 0 14 22 -4 28 -7 2 -12 -3 -12 -12z"/>
<path d="M22 1118 c6 -18 28 -21 28 -4 0 9 -7 16 -16 16 -9 0 -14 -5 -12 -12z"/>
<path d="M2740 1095 c0 -8 7 -15 15 -15 8 0 15 7 15 15 0 8 -7 15 -15 15 -8 0
-15 -7 -15 -15z"/>
<path d="M36 1065 c4 -8 10 -12 15 -9 14 8 10 24 -6 24 -9 0 -12 -6 -9 -15z"/>
<path d="M2732 1048 c6 -18 28 -21 28 -4 0 9 -7 16 -16 16 -9 0 -14 -5 -12
-12z"/>
<path d="M56 1033 c-11 -11 -6 -23 9 -23 8 0 15 4 15 9 0 13 -16 22 -24 14z"/>
<path d="M2720 1005 c0 -20 17 -28 23 -11 3 8 -1 17 -9 20 -8 3 -14 -1 -14 -9z"/>
<path d="M60 975 c0 -8 7 -15 15 -15 8 0 15 7 15 15 0 8 -7 15 -15 15 -8 0
-15 -7 -15 -15z"/>
<path d="M2700 956 c0 -9 7 -16 16 -16 17 0 14 22 -4 28 -7 2 -12 -3 -12 -12z"/>
<path d="M80 925 c0 -9 6 -12 15 -9 8 4 12 10 9 15 -8 14 -24 10 -24 -6z"/>
<path d="M2680 911 c0 -5 7 -11 15 -15 9 -3 15 0 15 9 0 8 -7 15 -15 15 -8 0
-15 -4 -15 -9z"/>
<path d="M95 891 c-7 -12 12 -24 25 -16 11 7 4 25 -10 25 -5 0 -11 -4 -15 -9z"/>
<path d="M2667 874 c-8 -8 1 -24 14 -24 5 0 9 7 9 15 0 15 -12 20 -23 9z"/>
<path d="M123 852 c-7 -4 -9 -13 -5 -19 4 -7 13 -9 19 -5 7 4 9 13 5 19 -4 7
-13 9 -19 5z"/>
<path d="M2645 830 c-4 -7 -1 -16 6 -21 17 -10 26 8 11 23 -6 6 -12 6 -17 -2z"/>
<path d="M140 795 c0 -9 5 -15 11 -13 6 2 11 8 11 13 0 5 -5 11 -11 13 -6 2
-11 -4 -11 -13z"/>
<path d="M2622 778 c6 -18 28 -21 28 -4 0 9 -7 16 -16 16 -9 0 -14 -5 -12 -12z"/>
<path d="M167 763 c-12 -11 -8 -23 8 -23 8 0 15 7 15 15 0 16 -12 20 -23 8z"/>
<path d="M2600 735 c0 -9 5 -15 11 -13 6 2 11 8 11 13 0 5 -5 11 -11 13 -6 2
-11 -4 -11 -13z"/>
<path d="M190 720 c-12 -8 -12 -10 3 -16 21 -8 35 2 21 16 -5 5 -15 6 -24 0z"/>
<path d="M2576 703 c-11 -11 -6 -23 9 -23 8 0 15 4 15 9 0 13 -16 22 -24 14z"/>
<path d="M215 680 c-4 -6 -3 -16 3 -22 6 -6 12 -6 17 2 4 6 3 16 -3 22 -6 6
-12 6 -17 -2z"/>
<path d="M2545 661 c-7 -12 12 -24 25 -16 11 7 4 25 -10 25 -5 0 -11 -4 -15
-9z"/>
<path d="M245 640 c-4 -6 -3 -16 3 -22 6 -6 12 -6 17 2 4 6 3 16 -3 22 -6 6
-12 6 -17 -2z"/>
<path d="M2515 621 c-7 -12 12 -24 25 -16 11 7 4 25 -10 25 -5 0 -11 -4 -15
-9z"/>
<path d="M276 603 c-11 -11 -6 -23 9 -23 8 0 15 4 15 9 0 13 -16 22 -24 14z"/>
<path d="M2485 581 c-7 -12 12 -24 25 -16 11 7 4 25 -10 25 -5 0 -11 -4 -15
-9z"/>
<path d="M305 561 c-6 -11 9 -23 19 -14 9 9 7 23 -3 23 -6 0 -12 -4 -16 -9z"/>
<path d="M2455 550 c-4 -6 -3 -16 3 -22 6 -6 12 -6 17 2 4 6 3 16 -3 22 -6 6
-12 6 -17 -2z"/>
<path d="M335 530 c-4 -6 -3 -16 3 -22 6 -6 12 -6 17 2 4 6 3 16 -3 22 -6 6
-12 6 -17 -2z"/>
<path d="M2426 513 c-11 -11 -6 -23 9 -23 8 0 15 4 15 9 0 13 -16 22 -24 14z"/>
<path d="M365 491 c-7 -12 12 -24 25 -16 11 7 4 25 -10 25 -5 0 -11 -4 -15 -9z"/>
<path d="M2392 469 c2 -6 8 -10 13 -10 5 0 11 4 13 10 2 6 -4 11 -13 11 -9 0
-15 -5 -13 -11z"/>
<path d="M405 460 c-4 -6 -3 -16 3 -22 6 -6 12 -6 17 2 4 6 3 16 -3 22 -6 6
-12 6 -17 -2z"/>
<path d="M2355 441 c-6 -11 9 -23 19 -14 9 9 7 23 -3 23 -6 0 -12 -4 -16 -9z"/>
<path d="M440 415 c0 -9 5 -15 11 -13 6 2 11 8 11 13 0 5 -5 11 -11 13 -6 2
-11 -4 -11 -13z"/>
<path d="M2315 411 c-7 -12 12 -24 25 -16 11 7 4 25 -10 25 -5 0 -11 -4 -15
-9z"/>
<path d="M475 391 c-7 -12 12 -24 25 -16 11 7 4 25 -10 25 -5 0 -11 -4 -15 -9z"/>
<path d="M2280 375 c0 -9 5 -15 11 -13 6 2 11 8 11 13 0 5 -5 11 -11 13 -6 2
-11 -4 -11 -13z"/>
<path d="M517 364 c-8 -8 1 -24 14 -24 5 0 9 7 9 15 0 15 -12 20 -23 9z"/>
<path d="M2240 345 c0 -9 5 -15 11 -13 6 2 11 8 11 13 0 5 -5 11 -11 13 -6 2
-11 -4 -11 -13z"/>
<path d="M555 331 c-6 -11 9 -23 19 -14 9 9 7 23 -3 23 -6 0 -12 -4 -16 -9z"/>
<path d="M2200 315 c0 -9 5 -15 11 -13 6 2 11 8 11 13 0 5 -5 11 -11 13 -6 2
-11 -4 -11 -13z"/>
<path d="M595 310 c-4 -6 -3 -16 3 -22 6 -6 12 -6 17 2 4 6 3 16 -3 22 -6 6
-12 6 -17 -2z"/>
<path d="M2165 300 c-4 -6 -3 -16 3 -22 6 -6 12 -6 17 2 4 6 3 16 -3 22 -6 6
-12 6 -17 -2z"/>
<path d="M637 284 c-8 -8 1 -24 14 -24 5 0 9 7 9 15 0 15 -12 20 -23 9z"/>
<path d="M2115 271 c-7 -12 12 -24 25 -16 11 7 4 25 -10 25 -5 0 -11 -4 -15
-9z"/>
<path d="M676 255 c-2 -7 1 -16 9 -19 7 -2 16 1 19 9 2 7 -1 16 -9 19 -7 2
-16 -1 -19 -9z"/>
<path d="M2083 252 c-8 -5 -9 -13 -3 -22 7 -12 10 -12 16 3 8 21 3 29 -13 19z"/>
<path d="M722 229 c2 -6 8 -10 13 -10 5 0 11 4 13 10 2 6 -4 11 -13 11 -9 0
-15 -5 -13 -11z"/>
<path d="M2032 219 c2 -6 8 -10 13 -10 5 0 11 4 13 10 2 6 -4 11 -13 11 -9 0
-15 -5 -13 -11z"/>
<path d="M767 214 c-8 -8 1 -24 14 -24 5 0 9 7 9 15 0 15 -12 20 -23 9z"/>
<path d="M1990 195 c0 -9 5 -15 11 -13 6 2 11 8 11 13 0 5 -5 11 -11 13 -6 2
-11 -4 -11 -13z"/>
<path d="M805 191 c-3 -5 -1 -12 5 -16 12 -7 30 2 30 16 0 12 -27 12 -35 0z"/>
<path d="M1942 179 c2 -6 8 -10 13 -10 5 0 11 4 13 10 2 6 -4 11 -13 11 -9 0
-15 -5 -13 -11z"/>
<path d="M852 168 c6 -18 28 -21 28 -4 0 9 -7 16 -16 16 -9 0 -14 -5 -12 -12z"/>
<path d="M1905 170 c-8 -13 -1 -24 14 -19 6 3 7 10 2 18 -6 10 -10 10 -16 1z"/>
<path d="M900 155 c0 -20 17 -28 23 -11 3 8 -1 17 -9 20 -8 3 -14 -1 -14 -9z"/>
<path d="M1850 145 c0 -8 7 -15 15 -15 8 0 15 7 15 15 0 8 -7 15 -15 15 -8 0
-15 -7 -15 -15z"/>
<path d="M947 143 c-12 -11 -8 -23 8 -23 8 0 15 7 15 15 0 16 -12 20 -23 8z"/>
<path d="M990 126 c0 -9 7 -16 16 -16 9 0 14 5 12 12 -6 18 -28 21 -28 4z"/>
<path d="M1806 126 c3 -8 12 -12 20 -9 17 6 9 23 -11 23 -8 0 -12 -6 -9 -14z"/>
<path d="M1760 115 c0 -9 5 -15 11 -13 6 2 11 8 11 13 0 5 -5 11 -11 13 -6 2
-11 -4 -11 -13z"/>
<path d="M1040 111 c0 -17 18 -21 24 -6 3 9 0 15 -9 15 -8 0 -15 -4 -15 -9z"/>
<path d="M1087 106 c-3 -8 1 -17 9 -20 8 -3 14 1 14 9 0 20 -17 28 -23 11z"/>
<path d="M1710 105 c0 -8 7 -15 15 -15 8 0 15 7 15 15 0 8 -7 15 -15 15 -8 0
-15 -7 -15 -15z"/>
<path d="M1136 103 c-11 -11 -6 -23 9 -23 8 0 15 4 15 9 0 13 -16 22 -24 14z"/>
<path d="M1662 98 c6 -18 28 -21 28 -4 0 9 -7 16 -16 16 -9 0 -14 -5 -12 -12z"/>
<path d="M1180 85 c0 -8 7 -15 15 -15 8 0 15 7 15 15 0 8 -7 15 -15 15 -8 0
-15 -7 -15 -15z"/>
<path d="M1620 85 c0 -8 5 -15 10 -15 6 0 10 7 10 15 0 8 -4 15 -10 15 -5 0
-10 -7 -10 -15z"/>
<path d="M1230 75 c0 -8 7 -15 15 -15 8 0 15 7 15 15 0 8 -7 15 -15 15 -8 0
-15 -7 -15 -15z"/>
<path d="M1280 75 c0 -8 5 -15 10 -15 6 0 10 7 10 15 0 8 -4 15 -10 15 -5 0
-10 -7 -10 -15z"/>
<path d="M1476 83 c-11 -11 -6 -23 9 -23 8 0 15 4 15 9 0 13 -16 22 -24 14z"/>
<path d="M1520 75 c0 -8 7 -15 15 -15 8 0 15 7 15 15 0 8 -7 15 -15 15 -8 0
-15 -7 -15 -15z"/>
<path d="M1570 75 c0 -9 6 -12 15 -9 19 8 19 24 0 24 -8 0 -15 -7 -15 -15z"/>
<path d="M1330 70 c0 -5 5 -10 10 -10 6 0 10 5 10 10 0 6 -4 10 -10 10 -5 0
-10 -4 -10 -10z"/>
<path d="M1372 68 c6 -18 28 -21 28 -4 0 9 -7 16 -16 16 -9 0 -14 -5 -12 -12z"/>
<path d="M1422 69 c5 -14 21 -14 26 0 2 6 -4 11 -13 11 -9 0 -15 -5 -13 -11z"/>
</g>
</svg>
